G04 #@! TF.FileFunction,Copper,L2,Bot,Signal*
%FSLAX46Y46*%
G04 Gerber Fmt 4.6, Leading zero omitted, Abs format (unit mm)*
G04 Created by KiCad (PCBNEW 4.0.1-stable) date Thu 28 Jan 2016 04:51:10 PM EET*
%MOMM*%
G01*
G04 APERTURE LIST*
%ADD10C,0.100000*%
%ADD11R,0.508000X1.343000*%
%ADD12R,1.727200X1.727200*%
%ADD13O,1.727200X1.727200*%
%ADD14R,1.250000X1.500000*%
%ADD15R,1.727200X2.032000*%
%ADD16O,1.727200X2.032000*%
%ADD17R,1.300000X1.500000*%
%ADD18C,0.600000*%
%ADD19C,0.250000*%
%ADD20C,0.254000*%
G04 APERTURE END LIST*
D10*
D11*
X144780000Y-111533000D03*
X146050000Y-111533000D03*
X147320000Y-111533000D03*
X148590000Y-111533000D03*
X149860000Y-111533000D03*
X151130000Y-111533000D03*
X152400000Y-111533000D03*
X152400000Y-118083000D03*
X151130000Y-118083000D03*
X148590000Y-118083000D03*
X147320000Y-118083000D03*
X146050000Y-118083000D03*
X144780000Y-118083000D03*
X149860000Y-118083000D03*
D12*
X144780000Y-104140000D03*
D13*
X144780000Y-101600000D03*
X147320000Y-104140000D03*
X147320000Y-101600000D03*
X149860000Y-104140000D03*
X149860000Y-101600000D03*
X152400000Y-104140000D03*
X152400000Y-101600000D03*
D14*
X154940000Y-116185000D03*
X154940000Y-113685000D03*
D15*
X154940000Y-120650000D03*
D16*
X152400000Y-120650000D03*
X149860000Y-120650000D03*
X147320000Y-120650000D03*
X144780000Y-120650000D03*
X142240000Y-120650000D03*
D17*
X142240000Y-111205000D03*
X142240000Y-108505000D03*
D18*
X152400000Y-106680000D03*
X155194000Y-107315000D03*
X143510000Y-111125000D03*
X146304000Y-115570000D03*
X153797000Y-113792000D03*
X147464950Y-108318138D03*
X149606000Y-110109000D03*
X148082000Y-113157000D03*
X146558000Y-105791000D03*
X147193000Y-109855000D03*
X147320000Y-116967000D03*
X150876000Y-113538000D03*
D19*
X142748000Y-102616000D02*
X143764000Y-101600000D01*
X143764000Y-101600000D02*
X144780000Y-101600000D01*
X142748000Y-105537000D02*
X142748000Y-102616000D01*
X144145000Y-106934000D02*
X142748000Y-105537000D01*
X152146000Y-106934000D02*
X144145000Y-106934000D01*
X152400000Y-106680000D02*
X152146000Y-106934000D01*
X154686000Y-107315000D02*
X154686000Y-109347000D01*
X154686000Y-101346000D02*
X154686000Y-107315000D01*
X154686000Y-107315000D02*
X155194000Y-107315000D01*
X144780000Y-101600000D02*
X146177000Y-100203000D01*
X146177000Y-100203000D02*
X153543000Y-100203000D01*
X153543000Y-100203000D02*
X154686000Y-101346000D01*
X154686000Y-109347000D02*
X152400000Y-111633000D01*
X152400000Y-114681000D02*
X153904000Y-116185000D01*
X153904000Y-116185000D02*
X154940000Y-116185000D01*
X152400000Y-111633000D02*
X152400000Y-114681000D01*
X154940000Y-120650000D02*
X154940000Y-116185000D01*
X142240000Y-111205000D02*
X142240000Y-111887000D01*
X142240000Y-111887000D02*
X145923000Y-115570000D01*
X144780000Y-117983000D02*
X144780000Y-116586000D01*
X144780000Y-116586000D02*
X145796000Y-115570000D01*
X145796000Y-115570000D02*
X145923000Y-115570000D01*
X145923000Y-115570000D02*
X146304000Y-115570000D01*
X143510000Y-111125000D02*
X142320000Y-111125000D01*
X142320000Y-111125000D02*
X142240000Y-111205000D01*
X153797000Y-113792000D02*
X154833000Y-113792000D01*
X154833000Y-113792000D02*
X154940000Y-113685000D01*
X153289000Y-117221000D02*
X153289000Y-119761000D01*
X153289000Y-119761000D02*
X152400000Y-120650000D01*
X148590000Y-112522000D02*
X153289000Y-117221000D01*
X148590000Y-111633000D02*
X148590000Y-112522000D01*
X149860000Y-120650000D02*
X150368000Y-120650000D01*
X150368000Y-120650000D02*
X152400000Y-118618000D01*
X152400000Y-118618000D02*
X152400000Y-117983000D01*
X147320000Y-120396000D02*
X148590000Y-119126000D01*
X148590000Y-119126000D02*
X148590000Y-117983000D01*
X147320000Y-120650000D02*
X147320000Y-120396000D01*
X147066000Y-115824000D02*
X147066000Y-115062000D01*
X147066000Y-115062000D02*
X144780000Y-112776000D01*
X146558000Y-116332000D02*
X147066000Y-115824000D01*
X146050000Y-116332000D02*
X146558000Y-116332000D01*
X145415000Y-116967000D02*
X146050000Y-116332000D01*
X145415000Y-119253000D02*
X145415000Y-116967000D01*
X144780000Y-119888000D02*
X145415000Y-119253000D01*
X144780000Y-120650000D02*
X144780000Y-119888000D01*
X144780000Y-112776000D02*
X144780000Y-111633000D01*
X144780000Y-120650000D02*
X144780000Y-119761000D01*
X146050000Y-111633000D02*
X146050000Y-110998000D01*
X146050000Y-110998000D02*
X146558000Y-110490000D01*
X146558000Y-110490000D02*
X147447000Y-110490000D01*
X147447000Y-110490000D02*
X147955000Y-109982000D01*
X147955000Y-109982000D02*
X147955000Y-108808188D01*
X147955000Y-108808188D02*
X147464950Y-108318138D01*
X147459862Y-108318138D02*
X147273000Y-108505000D01*
X147273000Y-108505000D02*
X142240000Y-108505000D01*
X147464950Y-108318138D02*
X147459862Y-108318138D01*
X147331812Y-108185000D02*
X147464950Y-108318138D01*
X149606000Y-110109000D02*
X148590000Y-110109000D01*
X148590000Y-110109000D02*
X147320000Y-111379000D01*
X147320000Y-111379000D02*
X147320000Y-111633000D01*
X147320000Y-111633000D02*
X147320000Y-111616076D01*
X151130000Y-117983000D02*
X151130000Y-116205000D01*
X151130000Y-116205000D02*
X148082000Y-113157000D01*
X146558000Y-105791000D02*
X147828000Y-105791000D01*
X147828000Y-105791000D02*
X148590000Y-105029000D01*
X148590000Y-105029000D02*
X148590000Y-102870000D01*
X148590000Y-102870000D02*
X149860000Y-101600000D01*
X146768736Y-109855000D02*
X147193000Y-109855000D01*
X146050000Y-109855000D02*
X146768736Y-109855000D01*
X145415000Y-110490000D02*
X146050000Y-109855000D01*
X149860000Y-117094000D02*
X145415000Y-112649000D01*
X145415000Y-112649000D02*
X145415000Y-110490000D01*
X149860000Y-117983000D02*
X149860000Y-117094000D01*
X152400000Y-101600000D02*
X152400000Y-101854000D01*
X152400000Y-101854000D02*
X153924000Y-103378000D01*
X151130000Y-112522000D02*
X150876000Y-112776000D01*
X153924000Y-103378000D02*
X153924000Y-108331000D01*
X153924000Y-108331000D02*
X151130000Y-111125000D01*
X151130000Y-111125000D02*
X151130000Y-112522000D01*
X149860000Y-111633000D02*
X149860000Y-112141000D01*
X149860000Y-112141000D02*
X150368000Y-112649000D01*
X150368000Y-112649000D02*
X150749000Y-112649000D01*
X150749000Y-112649000D02*
X150876000Y-112776000D01*
X147320000Y-116967000D02*
X147320000Y-117983000D01*
X147320000Y-116967000D02*
X146244500Y-116967000D01*
X146244500Y-116967000D02*
X146050000Y-117161500D01*
X146050000Y-117161500D02*
X146050000Y-117983000D01*
X150876000Y-113538000D02*
X150876000Y-112776000D01*
D20*
G36*
X156135000Y-112648148D02*
X156029090Y-112483559D01*
X155816890Y-112338569D01*
X155565000Y-112287560D01*
X154315000Y-112287560D01*
X154079683Y-112331838D01*
X153863559Y-112470910D01*
X153718569Y-112683110D01*
X153683376Y-112856900D01*
X153611833Y-112856838D01*
X153268057Y-112998883D01*
X153004808Y-113261673D01*
X152862162Y-113605201D01*
X152861838Y-113977167D01*
X153003883Y-114320943D01*
X153266673Y-114584192D01*
X153610201Y-114726838D01*
X153748286Y-114726958D01*
X153850910Y-114886441D01*
X153919006Y-114932969D01*
X153776673Y-115075302D01*
X153680000Y-115308691D01*
X153680000Y-115899250D01*
X153838750Y-116058000D01*
X154813000Y-116058000D01*
X154813000Y-116038000D01*
X155067000Y-116038000D01*
X155067000Y-116058000D01*
X155087000Y-116058000D01*
X155087000Y-116312000D01*
X155067000Y-116312000D01*
X155067000Y-117411250D01*
X155225750Y-117570000D01*
X155691310Y-117570000D01*
X155924699Y-117473327D01*
X156103327Y-117294698D01*
X156135000Y-117218233D01*
X156135000Y-119083952D01*
X155929909Y-118999000D01*
X155225750Y-118999000D01*
X155067000Y-119157750D01*
X155067000Y-120523000D01*
X155087000Y-120523000D01*
X155087000Y-120777000D01*
X155067000Y-120777000D01*
X155067000Y-120797000D01*
X154813000Y-120797000D01*
X154813000Y-120777000D01*
X154793000Y-120777000D01*
X154793000Y-120523000D01*
X154813000Y-120523000D01*
X154813000Y-119157750D01*
X154654250Y-118999000D01*
X154049000Y-118999000D01*
X154049000Y-117512138D01*
X154188690Y-117570000D01*
X154654250Y-117570000D01*
X154813000Y-117411250D01*
X154813000Y-116312000D01*
X153838750Y-116312000D01*
X153680000Y-116470750D01*
X153680000Y-116537198D01*
X151439461Y-114296659D01*
X151668192Y-114068327D01*
X151810838Y-113724799D01*
X151811162Y-113352833D01*
X151681315Y-113038578D01*
X151832148Y-112812840D01*
X151841525Y-112765701D01*
X152019691Y-112839500D01*
X152114250Y-112839500D01*
X152273000Y-112680750D01*
X152273000Y-111660000D01*
X152527000Y-111660000D01*
X152527000Y-112680750D01*
X152685750Y-112839500D01*
X152780309Y-112839500D01*
X153013698Y-112742827D01*
X153192327Y-112564199D01*
X153289000Y-112330810D01*
X153289000Y-111818750D01*
X153130250Y-111660000D01*
X152527000Y-111660000D01*
X152273000Y-111660000D01*
X152253000Y-111660000D01*
X152253000Y-111406000D01*
X152273000Y-111406000D01*
X152273000Y-111386000D01*
X152527000Y-111386000D01*
X152527000Y-111406000D01*
X153130250Y-111406000D01*
X153289000Y-111247250D01*
X153289000Y-110735190D01*
X153192327Y-110501801D01*
X153013698Y-110323173D01*
X153008699Y-110321103D01*
X154461401Y-108868401D01*
X154626148Y-108621839D01*
X154684000Y-108331000D01*
X154684000Y-103378000D01*
X154626148Y-103087161D01*
X154626148Y-103087160D01*
X154461401Y-102840599D01*
X153791017Y-102170215D01*
X153898600Y-101629359D01*
X153898600Y-101570641D01*
X153784526Y-100997152D01*
X153459670Y-100510971D01*
X153301073Y-100405000D01*
X156135000Y-100405000D01*
X156135000Y-112648148D01*
X156135000Y-112648148D01*
G37*
X156135000Y-112648148D02*
X156029090Y-112483559D01*
X155816890Y-112338569D01*
X155565000Y-112287560D01*
X154315000Y-112287560D01*
X154079683Y-112331838D01*
X153863559Y-112470910D01*
X153718569Y-112683110D01*
X153683376Y-112856900D01*
X153611833Y-112856838D01*
X153268057Y-112998883D01*
X153004808Y-113261673D01*
X152862162Y-113605201D01*
X152861838Y-113977167D01*
X153003883Y-114320943D01*
X153266673Y-114584192D01*
X153610201Y-114726838D01*
X153748286Y-114726958D01*
X153850910Y-114886441D01*
X153919006Y-114932969D01*
X153776673Y-115075302D01*
X153680000Y-115308691D01*
X153680000Y-115899250D01*
X153838750Y-116058000D01*
X154813000Y-116058000D01*
X154813000Y-116038000D01*
X155067000Y-116038000D01*
X155067000Y-116058000D01*
X155087000Y-116058000D01*
X155087000Y-116312000D01*
X155067000Y-116312000D01*
X155067000Y-117411250D01*
X155225750Y-117570000D01*
X155691310Y-117570000D01*
X155924699Y-117473327D01*
X156103327Y-117294698D01*
X156135000Y-117218233D01*
X156135000Y-119083952D01*
X155929909Y-118999000D01*
X155225750Y-118999000D01*
X155067000Y-119157750D01*
X155067000Y-120523000D01*
X155087000Y-120523000D01*
X155087000Y-120777000D01*
X155067000Y-120777000D01*
X155067000Y-120797000D01*
X154813000Y-120797000D01*
X154813000Y-120777000D01*
X154793000Y-120777000D01*
X154793000Y-120523000D01*
X154813000Y-120523000D01*
X154813000Y-119157750D01*
X154654250Y-118999000D01*
X154049000Y-118999000D01*
X154049000Y-117512138D01*
X154188690Y-117570000D01*
X154654250Y-117570000D01*
X154813000Y-117411250D01*
X154813000Y-116312000D01*
X153838750Y-116312000D01*
X153680000Y-116470750D01*
X153680000Y-116537198D01*
X151439461Y-114296659D01*
X151668192Y-114068327D01*
X151810838Y-113724799D01*
X151811162Y-113352833D01*
X151681315Y-113038578D01*
X151832148Y-112812840D01*
X151841525Y-112765701D01*
X152019691Y-112839500D01*
X152114250Y-112839500D01*
X152273000Y-112680750D01*
X152273000Y-111660000D01*
X152527000Y-111660000D01*
X152527000Y-112680750D01*
X152685750Y-112839500D01*
X152780309Y-112839500D01*
X153013698Y-112742827D01*
X153192327Y-112564199D01*
X153289000Y-112330810D01*
X153289000Y-111818750D01*
X153130250Y-111660000D01*
X152527000Y-111660000D01*
X152273000Y-111660000D01*
X152253000Y-111660000D01*
X152253000Y-111406000D01*
X152273000Y-111406000D01*
X152273000Y-111386000D01*
X152527000Y-111386000D01*
X152527000Y-111406000D01*
X153130250Y-111406000D01*
X153289000Y-111247250D01*
X153289000Y-110735190D01*
X153192327Y-110501801D01*
X153013698Y-110323173D01*
X153008699Y-110321103D01*
X154461401Y-108868401D01*
X154626148Y-108621839D01*
X154684000Y-108331000D01*
X154684000Y-103378000D01*
X154626148Y-103087161D01*
X154626148Y-103087160D01*
X154461401Y-102840599D01*
X153791017Y-102170215D01*
X153898600Y-101629359D01*
X153898600Y-101570641D01*
X153784526Y-100997152D01*
X153459670Y-100510971D01*
X153301073Y-100405000D01*
X156135000Y-100405000D01*
X156135000Y-112648148D01*
G36*
X143573179Y-100711510D02*
X143325032Y-101240973D01*
X143445531Y-101473000D01*
X144653000Y-101473000D01*
X144653000Y-101453000D01*
X144907000Y-101453000D01*
X144907000Y-101473000D01*
X144927000Y-101473000D01*
X144927000Y-101727000D01*
X144907000Y-101727000D01*
X144907000Y-101747000D01*
X144653000Y-101747000D01*
X144653000Y-101727000D01*
X143445531Y-101727000D01*
X143325032Y-101959027D01*
X143573179Y-102488490D01*
X143759433Y-102658495D01*
X143681083Y-102673238D01*
X143464959Y-102812310D01*
X143319969Y-103024510D01*
X143268960Y-103276400D01*
X143268960Y-105003600D01*
X143313238Y-105238917D01*
X143452310Y-105455041D01*
X143664510Y-105600031D01*
X143916400Y-105651040D01*
X145623121Y-105651040D01*
X145622838Y-105976167D01*
X145764883Y-106319943D01*
X146027673Y-106583192D01*
X146371201Y-106725838D01*
X146743167Y-106726162D01*
X147086943Y-106584117D01*
X147120118Y-106551000D01*
X147828000Y-106551000D01*
X148118839Y-106493148D01*
X148365401Y-106328401D01*
X149127401Y-105566401D01*
X149182293Y-105484249D01*
X149286511Y-105553885D01*
X149860000Y-105667959D01*
X150433489Y-105553885D01*
X150919670Y-105229029D01*
X151130000Y-104914248D01*
X151340330Y-105229029D01*
X151826511Y-105553885D01*
X152400000Y-105667959D01*
X152973489Y-105553885D01*
X153164000Y-105426590D01*
X153164000Y-108016198D01*
X150966138Y-110214060D01*
X150876000Y-110214060D01*
X150640683Y-110258338D01*
X150525659Y-110332354D01*
X150540838Y-110295799D01*
X150541162Y-109923833D01*
X150399117Y-109580057D01*
X150136327Y-109316808D01*
X149792799Y-109174162D01*
X149420833Y-109173838D01*
X149077057Y-109315883D01*
X149043882Y-109349000D01*
X148715000Y-109349000D01*
X148715000Y-108808188D01*
X148657148Y-108517349D01*
X148657148Y-108517348D01*
X148492401Y-108270787D01*
X148400072Y-108178458D01*
X148400112Y-108132971D01*
X148258067Y-107789195D01*
X147995277Y-107525946D01*
X147651749Y-107383300D01*
X147279783Y-107382976D01*
X146936007Y-107525021D01*
X146851279Y-107609601D01*
X146794411Y-107647599D01*
X146756745Y-107703971D01*
X146715644Y-107745000D01*
X143535558Y-107745000D01*
X143493162Y-107519683D01*
X143354090Y-107303559D01*
X143141890Y-107158569D01*
X142890000Y-107107560D01*
X141590000Y-107107560D01*
X141354683Y-107151838D01*
X141138559Y-107290910D01*
X141045000Y-107427838D01*
X141045000Y-100405000D01*
X143908984Y-100405000D01*
X143573179Y-100711510D01*
X143573179Y-100711510D01*
G37*
X143573179Y-100711510D02*
X143325032Y-101240973D01*
X143445531Y-101473000D01*
X144653000Y-101473000D01*
X144653000Y-101453000D01*
X144907000Y-101453000D01*
X144907000Y-101473000D01*
X144927000Y-101473000D01*
X144927000Y-101727000D01*
X144907000Y-101727000D01*
X144907000Y-101747000D01*
X144653000Y-101747000D01*
X144653000Y-101727000D01*
X143445531Y-101727000D01*
X143325032Y-101959027D01*
X143573179Y-102488490D01*
X143759433Y-102658495D01*
X143681083Y-102673238D01*
X143464959Y-102812310D01*
X143319969Y-103024510D01*
X143268960Y-103276400D01*
X143268960Y-105003600D01*
X143313238Y-105238917D01*
X143452310Y-105455041D01*
X143664510Y-105600031D01*
X143916400Y-105651040D01*
X145623121Y-105651040D01*
X145622838Y-105976167D01*
X145764883Y-106319943D01*
X146027673Y-106583192D01*
X146371201Y-106725838D01*
X146743167Y-106726162D01*
X147086943Y-106584117D01*
X147120118Y-106551000D01*
X147828000Y-106551000D01*
X148118839Y-106493148D01*
X148365401Y-106328401D01*
X149127401Y-105566401D01*
X149182293Y-105484249D01*
X149286511Y-105553885D01*
X149860000Y-105667959D01*
X150433489Y-105553885D01*
X150919670Y-105229029D01*
X151130000Y-104914248D01*
X151340330Y-105229029D01*
X151826511Y-105553885D01*
X152400000Y-105667959D01*
X152973489Y-105553885D01*
X153164000Y-105426590D01*
X153164000Y-108016198D01*
X150966138Y-110214060D01*
X150876000Y-110214060D01*
X150640683Y-110258338D01*
X150525659Y-110332354D01*
X150540838Y-110295799D01*
X150541162Y-109923833D01*
X150399117Y-109580057D01*
X150136327Y-109316808D01*
X149792799Y-109174162D01*
X149420833Y-109173838D01*
X149077057Y-109315883D01*
X149043882Y-109349000D01*
X148715000Y-109349000D01*
X148715000Y-108808188D01*
X148657148Y-108517349D01*
X148657148Y-108517348D01*
X148492401Y-108270787D01*
X148400072Y-108178458D01*
X148400112Y-108132971D01*
X148258067Y-107789195D01*
X147995277Y-107525946D01*
X147651749Y-107383300D01*
X147279783Y-107382976D01*
X146936007Y-107525021D01*
X146851279Y-107609601D01*
X146794411Y-107647599D01*
X146756745Y-107703971D01*
X146715644Y-107745000D01*
X143535558Y-107745000D01*
X143493162Y-107519683D01*
X143354090Y-107303559D01*
X143141890Y-107158569D01*
X142890000Y-107107560D01*
X141590000Y-107107560D01*
X141354683Y-107151838D01*
X141138559Y-107290910D01*
X141045000Y-107427838D01*
X141045000Y-100405000D01*
X143908984Y-100405000D01*
X143573179Y-100711510D01*
M02*
