G04 #@! TF.FileFunction,Copper,L1,Top,Signal*
%FSLAX46Y46*%
G04 Gerber Fmt 4.6, Leading zero omitted, Abs format (unit mm)*
G04 Created by KiCad (PCBNEW 4.0.1-stable) date Fri 29 Jan 2016 11:03:32 AM EET*
%MOMM*%
G01*
G04 APERTURE LIST*
%ADD10C,0.100000*%
%ADD11R,2.350000X0.600000*%
%ADD12R,1.727200X1.727200*%
%ADD13O,1.727200X1.727200*%
%ADD14R,1.727200X2.032000*%
%ADD15O,1.727200X2.032000*%
%ADD16C,0.600000*%
%ADD17C,0.250000*%
%ADD18C,0.254000*%
G04 APERTURE END LIST*
D10*
D11*
X145490000Y-110490000D03*
X145490000Y-111760000D03*
X145490000Y-113030000D03*
X145490000Y-114300000D03*
X151690000Y-114300000D03*
X151690000Y-113030000D03*
X151690000Y-111760000D03*
X151690000Y-110490000D03*
D12*
X144780000Y-105410000D03*
D13*
X144780000Y-102870000D03*
X147320000Y-105410000D03*
X147320000Y-102870000D03*
X149860000Y-105410000D03*
X149860000Y-102870000D03*
X152400000Y-105410000D03*
X152400000Y-102870000D03*
D14*
X154940000Y-120650000D03*
D15*
X152400000Y-120650000D03*
X149860000Y-120650000D03*
X147320000Y-120650000D03*
X144780000Y-120650000D03*
X142240000Y-120650000D03*
D16*
X153670000Y-118427500D03*
X144526000Y-115189000D03*
X154178000Y-113792000D03*
X143510000Y-114808000D03*
X153543000Y-111760000D03*
X147320000Y-109728000D03*
X148717006Y-113030000D03*
X151130000Y-115506500D03*
X146177000Y-106553000D03*
X149860000Y-115633500D03*
D17*
X153245736Y-118427500D02*
X153670000Y-118427500D01*
X148728500Y-118427500D02*
X153245736Y-118427500D01*
X145490000Y-115189000D02*
X148728500Y-118427500D01*
X145490000Y-114300000D02*
X145490000Y-115189000D01*
X144526000Y-115189000D02*
X145490000Y-115189000D01*
X143383000Y-113030000D02*
X143383000Y-114681000D01*
X143383000Y-114681000D02*
X143510000Y-114808000D01*
X144780000Y-105410000D02*
X144780000Y-106523600D01*
X143383000Y-113030000D02*
X143510000Y-113030000D01*
X144780000Y-106523600D02*
X143383000Y-107920600D01*
X143383000Y-107920600D02*
X143383000Y-113030000D01*
X143510000Y-114808000D02*
X143510000Y-115232264D01*
X143510000Y-115232264D02*
X147393737Y-119116001D01*
X147393737Y-119116001D02*
X154187999Y-119116001D01*
X154187999Y-119116001D02*
X155194000Y-118110000D01*
X155194000Y-118110000D02*
X155194000Y-114808000D01*
X155194000Y-114808000D02*
X154178000Y-113792000D01*
X145490000Y-113030000D02*
X144065000Y-113030000D01*
X144065000Y-113030000D02*
X143510000Y-113030000D01*
X145490000Y-113030000D02*
X144615000Y-113030000D01*
X151690000Y-111760000D02*
X153543000Y-111760000D01*
X151690000Y-110490000D02*
X151690000Y-111760000D01*
X147320000Y-109728000D02*
X147320000Y-105410000D01*
X147320000Y-109728000D02*
X146812000Y-109728000D01*
X146812000Y-109728000D02*
X146050000Y-110490000D01*
X146050000Y-110490000D02*
X145490000Y-110490000D01*
X147320000Y-102870000D02*
X148590000Y-104140000D01*
X148590000Y-104140000D02*
X148590000Y-112903000D01*
X148590000Y-112903000D02*
X148590006Y-112903000D01*
X148590006Y-112903000D02*
X148717006Y-113030000D01*
X151690000Y-113030000D02*
X148717006Y-113030000D01*
X151429999Y-115206501D02*
X151130000Y-115506500D01*
X151690000Y-114946500D02*
X151429999Y-115206501D01*
X151690000Y-114300000D02*
X151690000Y-114946500D01*
X151690000Y-114300000D02*
X153115000Y-114300000D01*
X153115000Y-114300000D02*
X153543000Y-113872000D01*
X153543000Y-113872000D02*
X153543000Y-113030000D01*
X153543000Y-113030000D02*
X154168001Y-112404999D01*
X154168001Y-109718001D02*
X149860000Y-105410000D01*
X154168001Y-112404999D02*
X154168001Y-109718001D01*
X146177000Y-106553000D02*
X146177000Y-106649087D01*
X146177000Y-106649087D02*
X143891000Y-108935087D01*
X143891000Y-108935087D02*
X143891000Y-111252000D01*
X143891000Y-111252000D02*
X144399000Y-111760000D01*
X144399000Y-111760000D02*
X145490000Y-111760000D01*
X149860000Y-115255000D02*
X149860000Y-115633500D01*
X146365000Y-111760000D02*
X149860000Y-115255000D01*
X145490000Y-111760000D02*
X146365000Y-111760000D01*
D18*
G36*
X155067000Y-120523000D02*
X155087000Y-120523000D01*
X155087000Y-120777000D01*
X155067000Y-120777000D01*
X155067000Y-120797000D01*
X154813000Y-120797000D01*
X154813000Y-120777000D01*
X154793000Y-120777000D01*
X154793000Y-120523000D01*
X154813000Y-120523000D01*
X154813000Y-120503000D01*
X155067000Y-120503000D01*
X155067000Y-120523000D01*
X155067000Y-120523000D01*
G37*
X155067000Y-120523000D02*
X155087000Y-120523000D01*
X155087000Y-120777000D01*
X155067000Y-120777000D01*
X155067000Y-120797000D01*
X154813000Y-120797000D01*
X154813000Y-120777000D01*
X154793000Y-120777000D01*
X154793000Y-120523000D01*
X154813000Y-120523000D01*
X154813000Y-120503000D01*
X155067000Y-120503000D01*
X155067000Y-120523000D01*
G36*
X144005053Y-101587312D02*
X143573179Y-101981510D01*
X143325032Y-102510973D01*
X143445531Y-102743000D01*
X144653000Y-102743000D01*
X144653000Y-102723000D01*
X144907000Y-102723000D01*
X144907000Y-102743000D01*
X144927000Y-102743000D01*
X144927000Y-102997000D01*
X144907000Y-102997000D01*
X144907000Y-103017000D01*
X144653000Y-103017000D01*
X144653000Y-102997000D01*
X143445531Y-102997000D01*
X143325032Y-103229027D01*
X143573179Y-103758490D01*
X143877050Y-104035852D01*
X143728147Y-104063870D01*
X143555247Y-104175128D01*
X143439255Y-104344888D01*
X143398448Y-104546400D01*
X143398448Y-106273600D01*
X143433870Y-106461853D01*
X143545128Y-106634753D01*
X143680888Y-106727514D01*
X143062401Y-107346001D01*
X142925184Y-107551361D01*
X142876999Y-107793600D01*
X142877000Y-107793605D01*
X142877000Y-114298207D01*
X142825410Y-114349707D01*
X142702140Y-114646574D01*
X142701860Y-114968016D01*
X142824611Y-115265097D01*
X142898192Y-115338807D01*
X142925184Y-115474503D01*
X143062401Y-115679863D01*
X146668013Y-119285474D01*
X146350132Y-119497875D01*
X146052807Y-119942854D01*
X146050000Y-119956966D01*
X146047193Y-119942854D01*
X145749868Y-119497875D01*
X145304889Y-119200550D01*
X144780000Y-119096143D01*
X144255111Y-119200550D01*
X143810132Y-119497875D01*
X143512807Y-119942854D01*
X143510000Y-119956966D01*
X143507193Y-119942854D01*
X143209868Y-119497875D01*
X142764889Y-119200550D01*
X142240000Y-119096143D01*
X141715111Y-119200550D01*
X141270132Y-119497875D01*
X140972807Y-119942854D01*
X140918000Y-120218387D01*
X140918000Y-101548000D01*
X144099966Y-101548000D01*
X144005053Y-101587312D01*
X144005053Y-101587312D01*
G37*
X144005053Y-101587312D02*
X143573179Y-101981510D01*
X143325032Y-102510973D01*
X143445531Y-102743000D01*
X144653000Y-102743000D01*
X144653000Y-102723000D01*
X144907000Y-102723000D01*
X144907000Y-102743000D01*
X144927000Y-102743000D01*
X144927000Y-102997000D01*
X144907000Y-102997000D01*
X144907000Y-103017000D01*
X144653000Y-103017000D01*
X144653000Y-102997000D01*
X143445531Y-102997000D01*
X143325032Y-103229027D01*
X143573179Y-103758490D01*
X143877050Y-104035852D01*
X143728147Y-104063870D01*
X143555247Y-104175128D01*
X143439255Y-104344888D01*
X143398448Y-104546400D01*
X143398448Y-106273600D01*
X143433870Y-106461853D01*
X143545128Y-106634753D01*
X143680888Y-106727514D01*
X143062401Y-107346001D01*
X142925184Y-107551361D01*
X142876999Y-107793600D01*
X142877000Y-107793605D01*
X142877000Y-114298207D01*
X142825410Y-114349707D01*
X142702140Y-114646574D01*
X142701860Y-114968016D01*
X142824611Y-115265097D01*
X142898192Y-115338807D01*
X142925184Y-115474503D01*
X143062401Y-115679863D01*
X146668013Y-119285474D01*
X146350132Y-119497875D01*
X146052807Y-119942854D01*
X146050000Y-119956966D01*
X146047193Y-119942854D01*
X145749868Y-119497875D01*
X145304889Y-119200550D01*
X144780000Y-119096143D01*
X144255111Y-119200550D01*
X143810132Y-119497875D01*
X143512807Y-119942854D01*
X143510000Y-119956966D01*
X143507193Y-119942854D01*
X143209868Y-119497875D01*
X142764889Y-119200550D01*
X142240000Y-119096143D01*
X141715111Y-119200550D01*
X141270132Y-119497875D01*
X140972807Y-119942854D01*
X140918000Y-120218387D01*
X140918000Y-101548000D01*
X144099966Y-101548000D01*
X144005053Y-101587312D01*
G36*
X149090205Y-115380402D02*
X149052140Y-115472074D01*
X149051860Y-115793516D01*
X149174611Y-116090597D01*
X149401707Y-116318090D01*
X149698574Y-116441360D01*
X150020016Y-116441640D01*
X150317097Y-116318889D01*
X150544590Y-116091793D01*
X150552813Y-116071989D01*
X150671707Y-116191090D01*
X150968574Y-116314360D01*
X151290016Y-116314640D01*
X151587097Y-116191889D01*
X151814590Y-115964793D01*
X151937860Y-115667926D01*
X151937925Y-115593773D01*
X152137599Y-115394099D01*
X152223795Y-115265097D01*
X152274816Y-115188739D01*
X152288896Y-115117952D01*
X152865000Y-115117952D01*
X153053253Y-115082530D01*
X153226153Y-114971272D01*
X153273899Y-114901394D01*
X153357239Y-114884816D01*
X153562599Y-114747599D01*
X153800189Y-114510009D01*
X154016574Y-114599860D01*
X154090727Y-114599925D01*
X154561000Y-115070198D01*
X154561000Y-117847803D01*
X153925801Y-118483001D01*
X147655934Y-118483001D01*
X144407934Y-115235000D01*
X145204250Y-115235000D01*
X145363000Y-115076250D01*
X145363000Y-114427000D01*
X145617000Y-114427000D01*
X145617000Y-115076250D01*
X145775750Y-115235000D01*
X146791309Y-115235000D01*
X147024698Y-115138327D01*
X147203327Y-114959699D01*
X147300000Y-114726310D01*
X147300000Y-114585750D01*
X147141250Y-114427000D01*
X145617000Y-114427000D01*
X145363000Y-114427000D01*
X145343000Y-114427000D01*
X145343000Y-114173000D01*
X145363000Y-114173000D01*
X145363000Y-114153000D01*
X145617000Y-114153000D01*
X145617000Y-114173000D01*
X147141250Y-114173000D01*
X147300000Y-114014250D01*
X147300000Y-113873690D01*
X147203327Y-113640301D01*
X147122820Y-113559795D01*
X147142145Y-113531512D01*
X147158845Y-113449043D01*
X149090205Y-115380402D01*
X149090205Y-115380402D01*
G37*
X149090205Y-115380402D02*
X149052140Y-115472074D01*
X149051860Y-115793516D01*
X149174611Y-116090597D01*
X149401707Y-116318090D01*
X149698574Y-116441360D01*
X150020016Y-116441640D01*
X150317097Y-116318889D01*
X150544590Y-116091793D01*
X150552813Y-116071989D01*
X150671707Y-116191090D01*
X150968574Y-116314360D01*
X151290016Y-116314640D01*
X151587097Y-116191889D01*
X151814590Y-115964793D01*
X151937860Y-115667926D01*
X151937925Y-115593773D01*
X152137599Y-115394099D01*
X152223795Y-115265097D01*
X152274816Y-115188739D01*
X152288896Y-115117952D01*
X152865000Y-115117952D01*
X153053253Y-115082530D01*
X153226153Y-114971272D01*
X153273899Y-114901394D01*
X153357239Y-114884816D01*
X153562599Y-114747599D01*
X153800189Y-114510009D01*
X154016574Y-114599860D01*
X154090727Y-114599925D01*
X154561000Y-115070198D01*
X154561000Y-117847803D01*
X153925801Y-118483001D01*
X147655934Y-118483001D01*
X144407934Y-115235000D01*
X145204250Y-115235000D01*
X145363000Y-115076250D01*
X145363000Y-114427000D01*
X145617000Y-114427000D01*
X145617000Y-115076250D01*
X145775750Y-115235000D01*
X146791309Y-115235000D01*
X147024698Y-115138327D01*
X147203327Y-114959699D01*
X147300000Y-114726310D01*
X147300000Y-114585750D01*
X147141250Y-114427000D01*
X145617000Y-114427000D01*
X145363000Y-114427000D01*
X145343000Y-114427000D01*
X145343000Y-114173000D01*
X145363000Y-114173000D01*
X145363000Y-114153000D01*
X145617000Y-114153000D01*
X145617000Y-114173000D01*
X147141250Y-114173000D01*
X147300000Y-114014250D01*
X147300000Y-113873690D01*
X147203327Y-113640301D01*
X147122820Y-113559795D01*
X147142145Y-113531512D01*
X147158845Y-113449043D01*
X149090205Y-115380402D01*
M02*
