G04 #@! TF.FileFunction,Legend,Top*
%FSLAX46Y46*%
G04 Gerber Fmt 4.6, Leading zero omitted, Abs format (unit mm)*
G04 Created by KiCad (PCBNEW 4.0.1-stable) date Thu 28 Jan 2016 04:51:10 PM EET*
%MOMM*%
G01*
G04 APERTURE LIST*
%ADD10C,0.100000*%
%ADD11C,0.200000*%
%ADD12C,0.150000*%
G04 APERTURE END LIST*
D10*
D11*
X148360143Y-117292381D02*
X148360143Y-116292381D01*
X148693477Y-117006667D01*
X149026810Y-116292381D01*
X149026810Y-117292381D01*
X150217286Y-116244762D02*
X149360143Y-117530476D01*
X150883953Y-116768571D02*
X151026810Y-116816190D01*
X151074429Y-116863810D01*
X151122048Y-116959048D01*
X151122048Y-117101905D01*
X151074429Y-117197143D01*
X151026810Y-117244762D01*
X150931572Y-117292381D01*
X150550619Y-117292381D01*
X150550619Y-116292381D01*
X150883953Y-116292381D01*
X150979191Y-116340000D01*
X151026810Y-116387619D01*
X151074429Y-116482857D01*
X151074429Y-116578095D01*
X151026810Y-116673333D01*
X150979191Y-116720952D01*
X150883953Y-116768571D01*
X150550619Y-116768571D01*
X152312524Y-117292381D02*
X152312524Y-116292381D01*
X153122048Y-116768571D02*
X152788714Y-116768571D01*
X152788714Y-117292381D02*
X152788714Y-116292381D01*
X153264905Y-116292381D01*
X153645857Y-117197143D02*
X153693476Y-117244762D01*
X153645857Y-117292381D01*
X153598238Y-117244762D01*
X153645857Y-117197143D01*
X153645857Y-117292381D01*
X153645857Y-116673333D02*
X153693476Y-116720952D01*
X153645857Y-116768571D01*
X153598238Y-116720952D01*
X153645857Y-116673333D01*
X153645857Y-116768571D01*
X147613810Y-106878381D02*
X147613810Y-105878381D01*
X148042381Y-106830762D02*
X148185238Y-106878381D01*
X148423334Y-106878381D01*
X148518572Y-106830762D01*
X148566191Y-106783143D01*
X148613810Y-106687905D01*
X148613810Y-106592667D01*
X148566191Y-106497429D01*
X148518572Y-106449810D01*
X148423334Y-106402190D01*
X148232857Y-106354571D01*
X148137619Y-106306952D01*
X148090000Y-106259333D01*
X148042381Y-106164095D01*
X148042381Y-106068857D01*
X148090000Y-105973619D01*
X148137619Y-105926000D01*
X148232857Y-105878381D01*
X148470953Y-105878381D01*
X148613810Y-105926000D01*
X149042381Y-106878381D02*
X149042381Y-105878381D01*
X149423334Y-105878381D01*
X149518572Y-105926000D01*
X149566191Y-105973619D01*
X149613810Y-106068857D01*
X149613810Y-106211714D01*
X149566191Y-106306952D01*
X149518572Y-106354571D01*
X149423334Y-106402190D01*
X149042381Y-106402190D01*
X141376477Y-101200000D02*
X141300286Y-101161905D01*
X141186001Y-101161905D01*
X141071715Y-101200000D01*
X140995524Y-101276190D01*
X140957429Y-101352381D01*
X140919334Y-101504762D01*
X140919334Y-101619048D01*
X140957429Y-101771429D01*
X140995524Y-101847619D01*
X141071715Y-101923810D01*
X141186001Y-101961905D01*
X141262191Y-101961905D01*
X141376477Y-101923810D01*
X141414572Y-101885714D01*
X141414572Y-101619048D01*
X141262191Y-101619048D01*
X141757429Y-101961905D02*
X141757429Y-101161905D01*
X142214572Y-101961905D01*
X142214572Y-101161905D01*
X142595524Y-101961905D02*
X142595524Y-101161905D01*
X142786000Y-101161905D01*
X142900286Y-101200000D01*
X142976477Y-101276190D01*
X143014572Y-101352381D01*
X143052667Y-101504762D01*
X143052667Y-101619048D01*
X143014572Y-101771429D01*
X142976477Y-101847619D01*
X142900286Y-101923810D01*
X142786000Y-101961905D01*
X142595524Y-101961905D01*
X140995524Y-103701905D02*
X141490762Y-103701905D01*
X141224095Y-104006667D01*
X141338381Y-104006667D01*
X141414571Y-104044762D01*
X141452667Y-104082857D01*
X141490762Y-104159048D01*
X141490762Y-104349524D01*
X141452667Y-104425714D01*
X141414571Y-104463810D01*
X141338381Y-104501905D01*
X141109809Y-104501905D01*
X141033619Y-104463810D01*
X140995524Y-104425714D01*
X141719333Y-103701905D02*
X141986000Y-104501905D01*
X142252667Y-103701905D01*
X142443143Y-103701905D02*
X142938381Y-103701905D01*
X142671714Y-104006667D01*
X142786000Y-104006667D01*
X142862190Y-104044762D01*
X142900286Y-104082857D01*
X142938381Y-104159048D01*
X142938381Y-104349524D01*
X142900286Y-104425714D01*
X142862190Y-104463810D01*
X142786000Y-104501905D01*
X142557428Y-104501905D01*
X142481238Y-104463810D01*
X142443143Y-104425714D01*
X154330477Y-118091000D02*
X154254286Y-118052905D01*
X154140001Y-118052905D01*
X154025715Y-118091000D01*
X153949524Y-118167190D01*
X153911429Y-118243381D01*
X153873334Y-118395762D01*
X153873334Y-118510048D01*
X153911429Y-118662429D01*
X153949524Y-118738619D01*
X154025715Y-118814810D01*
X154140001Y-118852905D01*
X154216191Y-118852905D01*
X154330477Y-118814810D01*
X154368572Y-118776714D01*
X154368572Y-118510048D01*
X154216191Y-118510048D01*
X154711429Y-118852905D02*
X154711429Y-118052905D01*
X155168572Y-118852905D01*
X155168572Y-118052905D01*
X155549524Y-118852905D02*
X155549524Y-118052905D01*
X155740000Y-118052905D01*
X155854286Y-118091000D01*
X155930477Y-118167190D01*
X155968572Y-118243381D01*
X156006667Y-118395762D01*
X156006667Y-118510048D01*
X155968572Y-118662429D01*
X155930477Y-118738619D01*
X155854286Y-118814810D01*
X155740000Y-118852905D01*
X155549524Y-118852905D01*
X152247619Y-119030714D02*
X152209524Y-119068810D01*
X152095238Y-119106905D01*
X152019048Y-119106905D01*
X151904762Y-119068810D01*
X151828571Y-118992619D01*
X151790476Y-118916429D01*
X151752381Y-118764048D01*
X151752381Y-118649762D01*
X151790476Y-118497381D01*
X151828571Y-118421190D01*
X151904762Y-118345000D01*
X152019048Y-118306905D01*
X152095238Y-118306905D01*
X152209524Y-118345000D01*
X152247619Y-118383095D01*
X152590476Y-119106905D02*
X152590476Y-118306905D01*
X153047619Y-119106905D02*
X152704762Y-118649762D01*
X153047619Y-118306905D02*
X152590476Y-118764048D01*
X149460000Y-119106905D02*
X149460000Y-118306905D01*
X149650476Y-118306905D01*
X149764762Y-118345000D01*
X149840953Y-118421190D01*
X149879048Y-118497381D01*
X149917143Y-118649762D01*
X149917143Y-118764048D01*
X149879048Y-118916429D01*
X149840953Y-118992619D01*
X149764762Y-119068810D01*
X149650476Y-119106905D01*
X149460000Y-119106905D01*
X150260000Y-119106905D02*
X150260000Y-118306905D01*
X146691429Y-119106905D02*
X146691429Y-118306905D01*
X146881905Y-118306905D01*
X146996191Y-118345000D01*
X147072382Y-118421190D01*
X147110477Y-118497381D01*
X147148572Y-118649762D01*
X147148572Y-118764048D01*
X147110477Y-118916429D01*
X147072382Y-118992619D01*
X146996191Y-119068810D01*
X146881905Y-119106905D01*
X146691429Y-119106905D01*
X147643810Y-118306905D02*
X147796191Y-118306905D01*
X147872382Y-118345000D01*
X147948572Y-118421190D01*
X147986667Y-118573571D01*
X147986667Y-118840238D01*
X147948572Y-118992619D01*
X147872382Y-119068810D01*
X147796191Y-119106905D01*
X147643810Y-119106905D01*
X147567620Y-119068810D01*
X147491429Y-118992619D01*
X147453334Y-118840238D01*
X147453334Y-118573571D01*
X147491429Y-118421190D01*
X147567620Y-118345000D01*
X147643810Y-118306905D01*
X144646667Y-119030714D02*
X144608572Y-119068810D01*
X144494286Y-119106905D01*
X144418096Y-119106905D01*
X144303810Y-119068810D01*
X144227619Y-118992619D01*
X144189524Y-118916429D01*
X144151429Y-118764048D01*
X144151429Y-118649762D01*
X144189524Y-118497381D01*
X144227619Y-118421190D01*
X144303810Y-118345000D01*
X144418096Y-118306905D01*
X144494286Y-118306905D01*
X144608572Y-118345000D01*
X144646667Y-118383095D01*
X144951429Y-119068810D02*
X145065715Y-119106905D01*
X145256191Y-119106905D01*
X145332381Y-119068810D01*
X145370477Y-119030714D01*
X145408572Y-118954524D01*
X145408572Y-118878333D01*
X145370477Y-118802143D01*
X145332381Y-118764048D01*
X145256191Y-118725952D01*
X145103810Y-118687857D01*
X145027619Y-118649762D01*
X144989524Y-118611667D01*
X144951429Y-118535476D01*
X144951429Y-118459286D01*
X144989524Y-118383095D01*
X145027619Y-118345000D01*
X145103810Y-118306905D01*
X145294286Y-118306905D01*
X145408572Y-118345000D01*
X143999048Y-118169000D02*
X145560953Y-118169000D01*
X141249524Y-118052905D02*
X141744762Y-118052905D01*
X141478095Y-118357667D01*
X141592381Y-118357667D01*
X141668571Y-118395762D01*
X141706667Y-118433857D01*
X141744762Y-118510048D01*
X141744762Y-118700524D01*
X141706667Y-118776714D01*
X141668571Y-118814810D01*
X141592381Y-118852905D01*
X141363809Y-118852905D01*
X141287619Y-118814810D01*
X141249524Y-118776714D01*
X141973333Y-118052905D02*
X142240000Y-118852905D01*
X142506667Y-118052905D01*
X142697143Y-118052905D02*
X143192381Y-118052905D01*
X142925714Y-118357667D01*
X143040000Y-118357667D01*
X143116190Y-118395762D01*
X143154286Y-118433857D01*
X143192381Y-118510048D01*
X143192381Y-118700524D01*
X143154286Y-118776714D01*
X143116190Y-118814810D01*
X143040000Y-118852905D01*
X142811428Y-118852905D01*
X142735238Y-118814810D01*
X142697143Y-118776714D01*
D12*
X146515000Y-107915000D02*
X146515000Y-108060000D01*
X150665000Y-107915000D02*
X150665000Y-108060000D01*
X150665000Y-113065000D02*
X150665000Y-112920000D01*
X146515000Y-113065000D02*
X146515000Y-112920000D01*
X146515000Y-107915000D02*
X150665000Y-107915000D01*
X146515000Y-113065000D02*
X150665000Y-113065000D01*
X146515000Y-108060000D02*
X145115000Y-108060000D01*
X145800000Y-115570000D02*
X145550000Y-115570000D01*
X146300000Y-115570000D02*
X146550000Y-115570000D01*
X146300000Y-115570000D02*
X145800000Y-115920000D01*
X145800000Y-115920000D02*
X145800000Y-115220000D01*
X145800000Y-115220000D02*
X146300000Y-115570000D01*
X146300000Y-115920000D02*
X146300000Y-115220000D01*
X147350000Y-114770000D02*
X144950000Y-114770000D01*
X147350000Y-116370000D02*
X144950000Y-116370000D01*
X146050000Y-105410000D02*
X153670000Y-105410000D01*
X153670000Y-105410000D02*
X153670000Y-100330000D01*
X153670000Y-100330000D02*
X143510000Y-100330000D01*
X143510000Y-100330000D02*
X143510000Y-102870000D01*
X143230000Y-104140000D02*
X143230000Y-105690000D01*
X143510000Y-102870000D02*
X146050000Y-102870000D01*
X146050000Y-102870000D02*
X146050000Y-105410000D01*
X143230000Y-105690000D02*
X144780000Y-105690000D01*
X153670000Y-119380000D02*
X140970000Y-119380000D01*
X140970000Y-119380000D02*
X140970000Y-121920000D01*
X140970000Y-121920000D02*
X153670000Y-121920000D01*
X156490000Y-119100000D02*
X154940000Y-119100000D01*
X153670000Y-119380000D02*
X153670000Y-121920000D01*
X154940000Y-122200000D02*
X156490000Y-122200000D01*
X156490000Y-122200000D02*
X156490000Y-119100000D01*
X141365000Y-116170000D02*
X141365000Y-114970000D01*
X143115000Y-114970000D02*
X143115000Y-116170000D01*
M02*
