M48
;DRILL file {KiCad 4.0.1-stable} date Thu 28 Jan 2016 04:51:47 PM EET
;FORMAT={2:4/ absolute / inch / keep zeros}
FMAT,2
INCH,TZ
T1C0.016
T2C0.040
%
G90
G05
M72
T1
X056500Y-043750
X057600Y-045500
X057700Y-041650
X057950Y-043250
X058000Y-046050
X058057Y-042645
X058300Y-044550
X058900Y-043350
X059400Y-044700
X060000Y-042000
X060550Y-044800
X061100Y-042250
T2
X056000Y-047500
X057000Y-040000
X057000Y-041000
X057000Y-047500
X058000Y-040000
X058000Y-041000
X058000Y-047500
X059000Y-040000
X059000Y-041000
X059000Y-047500
X060000Y-040000
X060000Y-041000
X060000Y-047500
X061000Y-047500
T0
M30
