G04 #@! TF.FileFunction,Copper,L1,Top,Signal*
%FSLAX46Y46*%
G04 Gerber Fmt 4.6, Leading zero omitted, Abs format (unit mm)*
G04 Created by KiCad (PCBNEW 4.0.1-stable) date Thu 28 Jan 2016 04:51:10 PM EET*
%MOMM*%
G01*
G04 APERTURE LIST*
%ADD10C,0.100000*%
%ADD11R,2.350000X0.600000*%
%ADD12R,0.990000X0.650000*%
%ADD13R,1.727200X1.727200*%
%ADD14O,1.727200X1.727200*%
%ADD15R,1.727200X2.032000*%
%ADD16O,1.727200X2.032000*%
%ADD17R,1.300000X1.500000*%
%ADD18C,0.600000*%
%ADD19C,0.250000*%
%ADD20C,0.254000*%
G04 APERTURE END LIST*
D10*
D11*
X145490000Y-108585000D03*
X145490000Y-109855000D03*
X145490000Y-111125000D03*
X145490000Y-112395000D03*
X151690000Y-112395000D03*
X151690000Y-111125000D03*
X151690000Y-109855000D03*
X151690000Y-108585000D03*
D12*
X147305000Y-115570000D03*
X144795000Y-115570000D03*
D13*
X144780000Y-104140000D03*
D14*
X144780000Y-101600000D03*
X147320000Y-104140000D03*
X147320000Y-101600000D03*
X149860000Y-104140000D03*
X149860000Y-101600000D03*
X152400000Y-104140000D03*
X152400000Y-101600000D03*
D15*
X154940000Y-120650000D03*
D16*
X152400000Y-120650000D03*
X149860000Y-120650000D03*
X147320000Y-120650000D03*
X144780000Y-120650000D03*
X142240000Y-120650000D03*
D17*
X142240000Y-114220000D03*
X142240000Y-116920000D03*
D18*
X152400000Y-106680000D03*
X155194000Y-107315000D03*
X143510000Y-111125000D03*
X146304000Y-115570000D03*
X153797000Y-113792000D03*
X147464950Y-108318138D03*
X149606000Y-110109000D03*
X148082000Y-113157000D03*
X146558000Y-105791000D03*
X147193000Y-109855000D03*
X147320000Y-116967000D03*
X150876000Y-113538000D03*
D19*
X155194000Y-107315000D02*
X153035000Y-107315000D01*
X153035000Y-107315000D02*
X152400000Y-106680000D01*
X145890000Y-112395000D02*
X143256000Y-112395000D01*
X143256000Y-112395000D02*
X142494000Y-111633000D01*
X142494000Y-111633000D02*
X142494000Y-102997000D01*
X142494000Y-102997000D02*
X143891000Y-101600000D01*
X143891000Y-101600000D02*
X144780000Y-101600000D01*
X143510000Y-111125000D02*
X143256000Y-110871000D01*
X143256000Y-110871000D02*
X143256000Y-107442000D01*
X143256000Y-107442000D02*
X144780000Y-105918000D01*
X144780000Y-105918000D02*
X144780000Y-104140000D01*
X145890000Y-111125000D02*
X143510000Y-111125000D01*
X153797000Y-113792000D02*
X153797000Y-108966000D01*
X153797000Y-108966000D02*
X153416000Y-108585000D01*
X153416000Y-108585000D02*
X151290000Y-108585000D01*
X151290000Y-109855000D02*
X151290000Y-108585000D01*
X147105000Y-115570000D02*
X152019000Y-115570000D01*
X152019000Y-115570000D02*
X153797000Y-113792000D01*
X146304000Y-115570000D02*
X147105000Y-115570000D01*
X142240000Y-116713000D02*
X143383000Y-115570000D01*
X143383000Y-115570000D02*
X144795000Y-115570000D01*
X142240000Y-116920000D02*
X142240000Y-116713000D01*
X142240000Y-120650000D02*
X142240000Y-118110000D01*
X142240000Y-118110000D02*
X142240000Y-116920000D01*
X144680000Y-115570000D02*
X144995000Y-115570000D01*
X147198088Y-108585000D02*
X147464950Y-108318138D01*
X147320000Y-104140000D02*
X147320000Y-108173188D01*
X147320000Y-108173188D02*
X147464950Y-108318138D01*
X145890000Y-108585000D02*
X147198088Y-108585000D01*
X149606000Y-110109000D02*
X149606000Y-106680000D01*
X149606000Y-106680000D02*
X151130000Y-105156000D01*
X151130000Y-105156000D02*
X151130000Y-103378000D01*
X151130000Y-103378000D02*
X150622000Y-102870000D01*
X150622000Y-102870000D02*
X148590000Y-102870000D01*
X148590000Y-102870000D02*
X147320000Y-101600000D01*
X149606000Y-110109000D02*
X149606000Y-110480020D01*
X149606000Y-110480020D02*
X150250980Y-111125000D01*
X150250980Y-111125000D02*
X151290000Y-111125000D01*
X148844000Y-112395000D02*
X148844000Y-105156000D01*
X148844000Y-105156000D02*
X149860000Y-104140000D01*
X151290000Y-112395000D02*
X151765000Y-112395000D01*
X148082000Y-113157000D02*
X148844000Y-112395000D01*
X148844000Y-112395000D02*
X151290000Y-112395000D01*
X146558000Y-105791000D02*
X145796000Y-105791000D01*
X145796000Y-105791000D02*
X143764000Y-107823000D01*
X143764000Y-107823000D02*
X143764000Y-109347000D01*
X143764000Y-109347000D02*
X144272000Y-109855000D01*
X144272000Y-109855000D02*
X145890000Y-109855000D01*
X145890000Y-109855000D02*
X147193000Y-109855000D01*
X147320000Y-116967000D02*
X146387736Y-116967000D01*
X146387736Y-116967000D02*
X145669000Y-116248264D01*
X145669000Y-116248264D02*
X145669000Y-115189000D01*
X145669000Y-115189000D02*
X147020001Y-113837999D01*
X147020001Y-113837999D02*
X150576001Y-113837999D01*
X150576001Y-113837999D02*
X150876000Y-113538000D01*
D20*
G36*
X156135000Y-119083952D02*
X155929909Y-118999000D01*
X155225750Y-118999000D01*
X155067000Y-119157750D01*
X155067000Y-120523000D01*
X155087000Y-120523000D01*
X155087000Y-120777000D01*
X155067000Y-120777000D01*
X155067000Y-120797000D01*
X154813000Y-120797000D01*
X154813000Y-120777000D01*
X154793000Y-120777000D01*
X154793000Y-120523000D01*
X154813000Y-120523000D01*
X154813000Y-119157750D01*
X154654250Y-118999000D01*
X153950091Y-118999000D01*
X153716702Y-119095673D01*
X153538073Y-119274301D01*
X153474500Y-119427780D01*
X153459670Y-119405585D01*
X152973489Y-119080729D01*
X152400000Y-118966655D01*
X151826511Y-119080729D01*
X151340330Y-119405585D01*
X151130000Y-119720366D01*
X150919670Y-119405585D01*
X150433489Y-119080729D01*
X149860000Y-118966655D01*
X149286511Y-119080729D01*
X148800330Y-119405585D01*
X148590000Y-119720366D01*
X148379670Y-119405585D01*
X147893489Y-119080729D01*
X147320000Y-118966655D01*
X146746511Y-119080729D01*
X146260330Y-119405585D01*
X146050000Y-119720366D01*
X145839670Y-119405585D01*
X145353489Y-119080729D01*
X144780000Y-118966655D01*
X144206511Y-119080729D01*
X143720330Y-119405585D01*
X143510000Y-119720366D01*
X143299670Y-119405585D01*
X143000000Y-119205352D01*
X143000000Y-118296742D01*
X143125317Y-118273162D01*
X143341441Y-118134090D01*
X143486431Y-117921890D01*
X143537440Y-117670000D01*
X143537440Y-116490362D01*
X143697802Y-116330000D01*
X143825331Y-116330000D01*
X143835910Y-116346441D01*
X144048110Y-116491431D01*
X144300000Y-116542440D01*
X144975525Y-116542440D01*
X144976850Y-116549101D01*
X145141597Y-116795663D01*
X145850335Y-117504401D01*
X146096897Y-117669148D01*
X146387736Y-117727000D01*
X146757537Y-117727000D01*
X146789673Y-117759192D01*
X147133201Y-117901838D01*
X147505167Y-117902162D01*
X147848943Y-117760117D01*
X148112192Y-117497327D01*
X148254838Y-117153799D01*
X148255162Y-116781833D01*
X148116395Y-116445990D01*
X148251441Y-116359090D01*
X148271317Y-116330000D01*
X152019000Y-116330000D01*
X152309839Y-116272148D01*
X152556401Y-116107401D01*
X153936680Y-114727122D01*
X153982167Y-114727162D01*
X154325943Y-114585117D01*
X154589192Y-114322327D01*
X154731838Y-113978799D01*
X154732162Y-113606833D01*
X154590117Y-113263057D01*
X154557000Y-113229882D01*
X154557000Y-108966000D01*
X154499148Y-108675161D01*
X154499148Y-108675160D01*
X154334401Y-108428599D01*
X153953401Y-108047599D01*
X153706839Y-107882852D01*
X153416000Y-107825000D01*
X153316563Y-107825000D01*
X153116890Y-107688569D01*
X152865000Y-107637560D01*
X150515000Y-107637560D01*
X150366000Y-107665596D01*
X150366000Y-106994802D01*
X151667401Y-105693401D01*
X151780960Y-105523449D01*
X151826511Y-105553885D01*
X152400000Y-105667959D01*
X152973489Y-105553885D01*
X153459670Y-105229029D01*
X153784526Y-104742848D01*
X153898600Y-104169359D01*
X153898600Y-104110641D01*
X153784526Y-103537152D01*
X153459670Y-103050971D01*
X153188828Y-102870000D01*
X153459670Y-102689029D01*
X153784526Y-102202848D01*
X153898600Y-101629359D01*
X153898600Y-101570641D01*
X153784526Y-100997152D01*
X153459670Y-100510971D01*
X153301073Y-100405000D01*
X156135000Y-100405000D01*
X156135000Y-119083952D01*
X156135000Y-119083952D01*
G37*
X156135000Y-119083952D02*
X155929909Y-118999000D01*
X155225750Y-118999000D01*
X155067000Y-119157750D01*
X155067000Y-120523000D01*
X155087000Y-120523000D01*
X155087000Y-120777000D01*
X155067000Y-120777000D01*
X155067000Y-120797000D01*
X154813000Y-120797000D01*
X154813000Y-120777000D01*
X154793000Y-120777000D01*
X154793000Y-120523000D01*
X154813000Y-120523000D01*
X154813000Y-119157750D01*
X154654250Y-118999000D01*
X153950091Y-118999000D01*
X153716702Y-119095673D01*
X153538073Y-119274301D01*
X153474500Y-119427780D01*
X153459670Y-119405585D01*
X152973489Y-119080729D01*
X152400000Y-118966655D01*
X151826511Y-119080729D01*
X151340330Y-119405585D01*
X151130000Y-119720366D01*
X150919670Y-119405585D01*
X150433489Y-119080729D01*
X149860000Y-118966655D01*
X149286511Y-119080729D01*
X148800330Y-119405585D01*
X148590000Y-119720366D01*
X148379670Y-119405585D01*
X147893489Y-119080729D01*
X147320000Y-118966655D01*
X146746511Y-119080729D01*
X146260330Y-119405585D01*
X146050000Y-119720366D01*
X145839670Y-119405585D01*
X145353489Y-119080729D01*
X144780000Y-118966655D01*
X144206511Y-119080729D01*
X143720330Y-119405585D01*
X143510000Y-119720366D01*
X143299670Y-119405585D01*
X143000000Y-119205352D01*
X143000000Y-118296742D01*
X143125317Y-118273162D01*
X143341441Y-118134090D01*
X143486431Y-117921890D01*
X143537440Y-117670000D01*
X143537440Y-116490362D01*
X143697802Y-116330000D01*
X143825331Y-116330000D01*
X143835910Y-116346441D01*
X144048110Y-116491431D01*
X144300000Y-116542440D01*
X144975525Y-116542440D01*
X144976850Y-116549101D01*
X145141597Y-116795663D01*
X145850335Y-117504401D01*
X146096897Y-117669148D01*
X146387736Y-117727000D01*
X146757537Y-117727000D01*
X146789673Y-117759192D01*
X147133201Y-117901838D01*
X147505167Y-117902162D01*
X147848943Y-117760117D01*
X148112192Y-117497327D01*
X148254838Y-117153799D01*
X148255162Y-116781833D01*
X148116395Y-116445990D01*
X148251441Y-116359090D01*
X148271317Y-116330000D01*
X152019000Y-116330000D01*
X152309839Y-116272148D01*
X152556401Y-116107401D01*
X153936680Y-114727122D01*
X153982167Y-114727162D01*
X154325943Y-114585117D01*
X154589192Y-114322327D01*
X154731838Y-113978799D01*
X154732162Y-113606833D01*
X154590117Y-113263057D01*
X154557000Y-113229882D01*
X154557000Y-108966000D01*
X154499148Y-108675161D01*
X154499148Y-108675160D01*
X154334401Y-108428599D01*
X153953401Y-108047599D01*
X153706839Y-107882852D01*
X153416000Y-107825000D01*
X153316563Y-107825000D01*
X153116890Y-107688569D01*
X152865000Y-107637560D01*
X150515000Y-107637560D01*
X150366000Y-107665596D01*
X150366000Y-106994802D01*
X151667401Y-105693401D01*
X151780960Y-105523449D01*
X151826511Y-105553885D01*
X152400000Y-105667959D01*
X152973489Y-105553885D01*
X153459670Y-105229029D01*
X153784526Y-104742848D01*
X153898600Y-104169359D01*
X153898600Y-104110641D01*
X153784526Y-103537152D01*
X153459670Y-103050971D01*
X153188828Y-102870000D01*
X153459670Y-102689029D01*
X153784526Y-102202848D01*
X153898600Y-101629359D01*
X153898600Y-101570641D01*
X153784526Y-100997152D01*
X153459670Y-100510971D01*
X153301073Y-100405000D01*
X156135000Y-100405000D01*
X156135000Y-119083952D01*
G36*
X143573179Y-100711510D02*
X143325032Y-101240973D01*
X143445531Y-101473000D01*
X144653000Y-101473000D01*
X144653000Y-101453000D01*
X144907000Y-101453000D01*
X144907000Y-101473000D01*
X144927000Y-101473000D01*
X144927000Y-101727000D01*
X144907000Y-101727000D01*
X144907000Y-101747000D01*
X144653000Y-101747000D01*
X144653000Y-101727000D01*
X143445531Y-101727000D01*
X143325032Y-101959027D01*
X143573179Y-102488490D01*
X143759433Y-102658495D01*
X143681083Y-102673238D01*
X143464959Y-102812310D01*
X143319969Y-103024510D01*
X143268960Y-103276400D01*
X143268960Y-105003600D01*
X143313238Y-105238917D01*
X143452310Y-105455041D01*
X143664510Y-105600031D01*
X143916400Y-105651040D01*
X143972158Y-105651040D01*
X142718599Y-106904599D01*
X142553852Y-107151161D01*
X142496000Y-107442000D01*
X142496000Y-110871000D01*
X142553852Y-111161839D01*
X142574940Y-111193399D01*
X142574838Y-111310167D01*
X142716883Y-111653943D01*
X142979673Y-111917192D01*
X143323201Y-112059838D01*
X143680000Y-112060149D01*
X143680000Y-112109250D01*
X143838750Y-112268000D01*
X145363000Y-112268000D01*
X145363000Y-112248000D01*
X145617000Y-112248000D01*
X145617000Y-112268000D01*
X147141250Y-112268000D01*
X147300000Y-112109250D01*
X147300000Y-111968690D01*
X147210194Y-111751878D01*
X147261431Y-111676890D01*
X147312440Y-111425000D01*
X147312440Y-110825000D01*
X147305873Y-110790099D01*
X147378167Y-110790162D01*
X147721943Y-110648117D01*
X147985192Y-110385327D01*
X148084000Y-110147372D01*
X148084000Y-112080198D01*
X147942320Y-112221878D01*
X147896833Y-112221838D01*
X147553057Y-112363883D01*
X147289808Y-112626673D01*
X147276932Y-112657682D01*
X147141250Y-112522000D01*
X145617000Y-112522000D01*
X145617000Y-113171250D01*
X145775750Y-113330000D01*
X146580198Y-113330000D01*
X145891890Y-114018308D01*
X145832839Y-113978852D01*
X145542000Y-113921000D01*
X143869000Y-113921000D01*
X143578161Y-113978852D01*
X143537440Y-114006061D01*
X143537440Y-113470000D01*
X143493162Y-113234683D01*
X143354090Y-113018559D01*
X143141890Y-112873569D01*
X142890000Y-112822560D01*
X141590000Y-112822560D01*
X141354683Y-112866838D01*
X141138559Y-113005910D01*
X141045000Y-113142838D01*
X141045000Y-112680750D01*
X143680000Y-112680750D01*
X143680000Y-112821310D01*
X143776673Y-113054699D01*
X143955302Y-113233327D01*
X144188691Y-113330000D01*
X145204250Y-113330000D01*
X145363000Y-113171250D01*
X145363000Y-112522000D01*
X143838750Y-112522000D01*
X143680000Y-112680750D01*
X141045000Y-112680750D01*
X141045000Y-100405000D01*
X143908984Y-100405000D01*
X143573179Y-100711510D01*
X143573179Y-100711510D01*
G37*
X143573179Y-100711510D02*
X143325032Y-101240973D01*
X143445531Y-101473000D01*
X144653000Y-101473000D01*
X144653000Y-101453000D01*
X144907000Y-101453000D01*
X144907000Y-101473000D01*
X144927000Y-101473000D01*
X144927000Y-101727000D01*
X144907000Y-101727000D01*
X144907000Y-101747000D01*
X144653000Y-101747000D01*
X144653000Y-101727000D01*
X143445531Y-101727000D01*
X143325032Y-101959027D01*
X143573179Y-102488490D01*
X143759433Y-102658495D01*
X143681083Y-102673238D01*
X143464959Y-102812310D01*
X143319969Y-103024510D01*
X143268960Y-103276400D01*
X143268960Y-105003600D01*
X143313238Y-105238917D01*
X143452310Y-105455041D01*
X143664510Y-105600031D01*
X143916400Y-105651040D01*
X143972158Y-105651040D01*
X142718599Y-106904599D01*
X142553852Y-107151161D01*
X142496000Y-107442000D01*
X142496000Y-110871000D01*
X142553852Y-111161839D01*
X142574940Y-111193399D01*
X142574838Y-111310167D01*
X142716883Y-111653943D01*
X142979673Y-111917192D01*
X143323201Y-112059838D01*
X143680000Y-112060149D01*
X143680000Y-112109250D01*
X143838750Y-112268000D01*
X145363000Y-112268000D01*
X145363000Y-112248000D01*
X145617000Y-112248000D01*
X145617000Y-112268000D01*
X147141250Y-112268000D01*
X147300000Y-112109250D01*
X147300000Y-111968690D01*
X147210194Y-111751878D01*
X147261431Y-111676890D01*
X147312440Y-111425000D01*
X147312440Y-110825000D01*
X147305873Y-110790099D01*
X147378167Y-110790162D01*
X147721943Y-110648117D01*
X147985192Y-110385327D01*
X148084000Y-110147372D01*
X148084000Y-112080198D01*
X147942320Y-112221878D01*
X147896833Y-112221838D01*
X147553057Y-112363883D01*
X147289808Y-112626673D01*
X147276932Y-112657682D01*
X147141250Y-112522000D01*
X145617000Y-112522000D01*
X145617000Y-113171250D01*
X145775750Y-113330000D01*
X146580198Y-113330000D01*
X145891890Y-114018308D01*
X145832839Y-113978852D01*
X145542000Y-113921000D01*
X143869000Y-113921000D01*
X143578161Y-113978852D01*
X143537440Y-114006061D01*
X143537440Y-113470000D01*
X143493162Y-113234683D01*
X143354090Y-113018559D01*
X143141890Y-112873569D01*
X142890000Y-112822560D01*
X141590000Y-112822560D01*
X141354683Y-112866838D01*
X141138559Y-113005910D01*
X141045000Y-113142838D01*
X141045000Y-112680750D01*
X143680000Y-112680750D01*
X143680000Y-112821310D01*
X143776673Y-113054699D01*
X143955302Y-113233327D01*
X144188691Y-113330000D01*
X145204250Y-113330000D01*
X145363000Y-113171250D01*
X145363000Y-112522000D01*
X143838750Y-112522000D01*
X143680000Y-112680750D01*
X141045000Y-112680750D01*
X141045000Y-100405000D01*
X143908984Y-100405000D01*
X143573179Y-100711510D01*
M02*
