G04 #@! TF.FileFunction,Legend,Top*
%FSLAX46Y46*%
G04 Gerber Fmt 4.6, Leading zero omitted, Abs format (unit mm)*
G04 Created by KiCad (PCBNEW 4.0.1-stable) date Fri 29 Jan 2016 11:03:32 AM EET*
%MOMM*%
G01*
G04 APERTURE LIST*
%ADD10C,0.100000*%
%ADD11C,0.200000*%
%ADD12C,0.150000*%
G04 APERTURE END LIST*
D10*
D11*
X145947143Y-117292381D02*
X145947143Y-116292381D01*
X146280477Y-117006667D01*
X146613810Y-116292381D01*
X146613810Y-117292381D01*
X147804286Y-116244762D02*
X146947143Y-117530476D01*
X148470953Y-116768571D02*
X148613810Y-116816190D01*
X148661429Y-116863810D01*
X148709048Y-116959048D01*
X148709048Y-117101905D01*
X148661429Y-117197143D01*
X148613810Y-117244762D01*
X148518572Y-117292381D01*
X148137619Y-117292381D01*
X148137619Y-116292381D01*
X148470953Y-116292381D01*
X148566191Y-116340000D01*
X148613810Y-116387619D01*
X148661429Y-116482857D01*
X148661429Y-116578095D01*
X148613810Y-116673333D01*
X148566191Y-116720952D01*
X148470953Y-116768571D01*
X148137619Y-116768571D01*
X149899524Y-117292381D02*
X149899524Y-116292381D01*
X150709048Y-116768571D02*
X150375714Y-116768571D01*
X150375714Y-117292381D02*
X150375714Y-116292381D01*
X150851905Y-116292381D01*
X151232857Y-117197143D02*
X151280476Y-117244762D01*
X151232857Y-117292381D01*
X151185238Y-117244762D01*
X151232857Y-117197143D01*
X151232857Y-117292381D01*
X151232857Y-116673333D02*
X151280476Y-116720952D01*
X151232857Y-116768571D01*
X151185238Y-116720952D01*
X151232857Y-116673333D01*
X151232857Y-116768571D01*
X147613810Y-108402381D02*
X147613810Y-107402381D01*
X148042381Y-108354762D02*
X148185238Y-108402381D01*
X148423334Y-108402381D01*
X148518572Y-108354762D01*
X148566191Y-108307143D01*
X148613810Y-108211905D01*
X148613810Y-108116667D01*
X148566191Y-108021429D01*
X148518572Y-107973810D01*
X148423334Y-107926190D01*
X148232857Y-107878571D01*
X148137619Y-107830952D01*
X148090000Y-107783333D01*
X148042381Y-107688095D01*
X148042381Y-107592857D01*
X148090000Y-107497619D01*
X148137619Y-107450000D01*
X148232857Y-107402381D01*
X148470953Y-107402381D01*
X148613810Y-107450000D01*
X149042381Y-108402381D02*
X149042381Y-107402381D01*
X149423334Y-107402381D01*
X149518572Y-107450000D01*
X149566191Y-107497619D01*
X149613810Y-107592857D01*
X149613810Y-107735714D01*
X149566191Y-107830952D01*
X149518572Y-107878571D01*
X149423334Y-107926190D01*
X149042381Y-107926190D01*
X141376477Y-102470000D02*
X141300286Y-102431905D01*
X141186001Y-102431905D01*
X141071715Y-102470000D01*
X140995524Y-102546190D01*
X140957429Y-102622381D01*
X140919334Y-102774762D01*
X140919334Y-102889048D01*
X140957429Y-103041429D01*
X140995524Y-103117619D01*
X141071715Y-103193810D01*
X141186001Y-103231905D01*
X141262191Y-103231905D01*
X141376477Y-103193810D01*
X141414572Y-103155714D01*
X141414572Y-102889048D01*
X141262191Y-102889048D01*
X141757429Y-103231905D02*
X141757429Y-102431905D01*
X142214572Y-103231905D01*
X142214572Y-102431905D01*
X142595524Y-103231905D02*
X142595524Y-102431905D01*
X142786000Y-102431905D01*
X142900286Y-102470000D01*
X142976477Y-102546190D01*
X143014572Y-102622381D01*
X143052667Y-102774762D01*
X143052667Y-102889048D01*
X143014572Y-103041429D01*
X142976477Y-103117619D01*
X142900286Y-103193810D01*
X142786000Y-103231905D01*
X142595524Y-103231905D01*
X140995524Y-104971905D02*
X141490762Y-104971905D01*
X141224095Y-105276667D01*
X141338381Y-105276667D01*
X141414571Y-105314762D01*
X141452667Y-105352857D01*
X141490762Y-105429048D01*
X141490762Y-105619524D01*
X141452667Y-105695714D01*
X141414571Y-105733810D01*
X141338381Y-105771905D01*
X141109809Y-105771905D01*
X141033619Y-105733810D01*
X140995524Y-105695714D01*
X141719333Y-104971905D02*
X141986000Y-105771905D01*
X142252667Y-104971905D01*
X142443143Y-104971905D02*
X142938381Y-104971905D01*
X142671714Y-105276667D01*
X142786000Y-105276667D01*
X142862190Y-105314762D01*
X142900286Y-105352857D01*
X142938381Y-105429048D01*
X142938381Y-105619524D01*
X142900286Y-105695714D01*
X142862190Y-105733810D01*
X142786000Y-105771905D01*
X142557428Y-105771905D01*
X142481238Y-105733810D01*
X142443143Y-105695714D01*
X154330477Y-118091000D02*
X154254286Y-118052905D01*
X154140001Y-118052905D01*
X154025715Y-118091000D01*
X153949524Y-118167190D01*
X153911429Y-118243381D01*
X153873334Y-118395762D01*
X153873334Y-118510048D01*
X153911429Y-118662429D01*
X153949524Y-118738619D01*
X154025715Y-118814810D01*
X154140001Y-118852905D01*
X154216191Y-118852905D01*
X154330477Y-118814810D01*
X154368572Y-118776714D01*
X154368572Y-118510048D01*
X154216191Y-118510048D01*
X154711429Y-118852905D02*
X154711429Y-118052905D01*
X155168572Y-118852905D01*
X155168572Y-118052905D01*
X155549524Y-118852905D02*
X155549524Y-118052905D01*
X155740000Y-118052905D01*
X155854286Y-118091000D01*
X155930477Y-118167190D01*
X155968572Y-118243381D01*
X156006667Y-118395762D01*
X156006667Y-118510048D01*
X155968572Y-118662429D01*
X155930477Y-118738619D01*
X155854286Y-118814810D01*
X155740000Y-118852905D01*
X155549524Y-118852905D01*
X152247619Y-119030714D02*
X152209524Y-119068810D01*
X152095238Y-119106905D01*
X152019048Y-119106905D01*
X151904762Y-119068810D01*
X151828571Y-118992619D01*
X151790476Y-118916429D01*
X151752381Y-118764048D01*
X151752381Y-118649762D01*
X151790476Y-118497381D01*
X151828571Y-118421190D01*
X151904762Y-118345000D01*
X152019048Y-118306905D01*
X152095238Y-118306905D01*
X152209524Y-118345000D01*
X152247619Y-118383095D01*
X152590476Y-119106905D02*
X152590476Y-118306905D01*
X153047619Y-119106905D02*
X152704762Y-118649762D01*
X153047619Y-118306905D02*
X152590476Y-118764048D01*
X149460000Y-119106905D02*
X149460000Y-118306905D01*
X149650476Y-118306905D01*
X149764762Y-118345000D01*
X149840953Y-118421190D01*
X149879048Y-118497381D01*
X149917143Y-118649762D01*
X149917143Y-118764048D01*
X149879048Y-118916429D01*
X149840953Y-118992619D01*
X149764762Y-119068810D01*
X149650476Y-119106905D01*
X149460000Y-119106905D01*
X150260000Y-119106905D02*
X150260000Y-118306905D01*
X146691429Y-119106905D02*
X146691429Y-118306905D01*
X146881905Y-118306905D01*
X146996191Y-118345000D01*
X147072382Y-118421190D01*
X147110477Y-118497381D01*
X147148572Y-118649762D01*
X147148572Y-118764048D01*
X147110477Y-118916429D01*
X147072382Y-118992619D01*
X146996191Y-119068810D01*
X146881905Y-119106905D01*
X146691429Y-119106905D01*
X147643810Y-118306905D02*
X147796191Y-118306905D01*
X147872382Y-118345000D01*
X147948572Y-118421190D01*
X147986667Y-118573571D01*
X147986667Y-118840238D01*
X147948572Y-118992619D01*
X147872382Y-119068810D01*
X147796191Y-119106905D01*
X147643810Y-119106905D01*
X147567620Y-119068810D01*
X147491429Y-118992619D01*
X147453334Y-118840238D01*
X147453334Y-118573571D01*
X147491429Y-118421190D01*
X147567620Y-118345000D01*
X147643810Y-118306905D01*
X144646667Y-119030714D02*
X144608572Y-119068810D01*
X144494286Y-119106905D01*
X144418096Y-119106905D01*
X144303810Y-119068810D01*
X144227619Y-118992619D01*
X144189524Y-118916429D01*
X144151429Y-118764048D01*
X144151429Y-118649762D01*
X144189524Y-118497381D01*
X144227619Y-118421190D01*
X144303810Y-118345000D01*
X144418096Y-118306905D01*
X144494286Y-118306905D01*
X144608572Y-118345000D01*
X144646667Y-118383095D01*
X144951429Y-119068810D02*
X145065715Y-119106905D01*
X145256191Y-119106905D01*
X145332381Y-119068810D01*
X145370477Y-119030714D01*
X145408572Y-118954524D01*
X145408572Y-118878333D01*
X145370477Y-118802143D01*
X145332381Y-118764048D01*
X145256191Y-118725952D01*
X145103810Y-118687857D01*
X145027619Y-118649762D01*
X144989524Y-118611667D01*
X144951429Y-118535476D01*
X144951429Y-118459286D01*
X144989524Y-118383095D01*
X145027619Y-118345000D01*
X145103810Y-118306905D01*
X145294286Y-118306905D01*
X145408572Y-118345000D01*
X143999048Y-118169000D02*
X145560953Y-118169000D01*
X141249524Y-118052905D02*
X141744762Y-118052905D01*
X141478095Y-118357667D01*
X141592381Y-118357667D01*
X141668571Y-118395762D01*
X141706667Y-118433857D01*
X141744762Y-118510048D01*
X141744762Y-118700524D01*
X141706667Y-118776714D01*
X141668571Y-118814810D01*
X141592381Y-118852905D01*
X141363809Y-118852905D01*
X141287619Y-118814810D01*
X141249524Y-118776714D01*
X141973333Y-118052905D02*
X142240000Y-118852905D01*
X142506667Y-118052905D01*
X142697143Y-118052905D02*
X143192381Y-118052905D01*
X142925714Y-118357667D01*
X143040000Y-118357667D01*
X143116190Y-118395762D01*
X143154286Y-118433857D01*
X143192381Y-118510048D01*
X143192381Y-118700524D01*
X143154286Y-118776714D01*
X143116190Y-118814810D01*
X143040000Y-118852905D01*
X142811428Y-118852905D01*
X142735238Y-118814810D01*
X142697143Y-118776714D01*
D12*
X146515000Y-109820000D02*
X146515000Y-109965000D01*
X150665000Y-109820000D02*
X150665000Y-109965000D01*
X150665000Y-114970000D02*
X150665000Y-114825000D01*
X146515000Y-114970000D02*
X146515000Y-114825000D01*
X146515000Y-109820000D02*
X150665000Y-109820000D01*
X146515000Y-114970000D02*
X150665000Y-114970000D01*
X146515000Y-109965000D02*
X145115000Y-109965000D01*
X146050000Y-106680000D02*
X153670000Y-106680000D01*
X153670000Y-106680000D02*
X153670000Y-101600000D01*
X153670000Y-101600000D02*
X143510000Y-101600000D01*
X143510000Y-101600000D02*
X143510000Y-104140000D01*
X143230000Y-105410000D02*
X143230000Y-106960000D01*
X143510000Y-104140000D02*
X146050000Y-104140000D01*
X146050000Y-104140000D02*
X146050000Y-106680000D01*
X143230000Y-106960000D02*
X144780000Y-106960000D01*
X153670000Y-119380000D02*
X140970000Y-119380000D01*
X140970000Y-119380000D02*
X140970000Y-121920000D01*
X140970000Y-121920000D02*
X153670000Y-121920000D01*
X156490000Y-119100000D02*
X154940000Y-119100000D01*
X153670000Y-119380000D02*
X153670000Y-121920000D01*
X154940000Y-122200000D02*
X156490000Y-122200000D01*
X156490000Y-122200000D02*
X156490000Y-119100000D01*
M02*
