G04 #@! TF.FileFunction,Legend,Bot*
%FSLAX46Y46*%
G04 Gerber Fmt 4.6, Leading zero omitted, Abs format (unit mm)*
G04 Created by KiCad (PCBNEW 4.0.1-stable) date Fri 29 Jan 2016 11:03:32 AM EET*
%MOMM*%
G01*
G04 APERTURE LIST*
%ADD10C,0.100000*%
%ADD11C,0.200000*%
%ADD12C,0.150000*%
G04 APERTURE END LIST*
D10*
D11*
X151923334Y-108337405D02*
X151923334Y-108985024D01*
X151885239Y-109061214D01*
X151847143Y-109099310D01*
X151770953Y-109137405D01*
X151618572Y-109137405D01*
X151542381Y-109099310D01*
X151504286Y-109061214D01*
X151466191Y-108985024D01*
X151466191Y-108337405D01*
X150628096Y-109137405D02*
X150894763Y-108756452D01*
X151085239Y-109137405D02*
X151085239Y-108337405D01*
X150780477Y-108337405D01*
X150704286Y-108375500D01*
X150666191Y-108413595D01*
X150628096Y-108489786D01*
X150628096Y-108604071D01*
X150666191Y-108680262D01*
X150704286Y-108718357D01*
X150780477Y-108756452D01*
X151085239Y-108756452D01*
X149713810Y-108299310D02*
X150399525Y-109327881D01*
X149028096Y-109137405D02*
X149485239Y-109137405D01*
X149256668Y-109137405D02*
X149256668Y-108337405D01*
X149332858Y-108451690D01*
X149409049Y-108527881D01*
X149485239Y-108565976D01*
X148342382Y-108337405D02*
X148494763Y-108337405D01*
X148570953Y-108375500D01*
X148609048Y-108413595D01*
X148685239Y-108527881D01*
X148723334Y-108680262D01*
X148723334Y-108985024D01*
X148685239Y-109061214D01*
X148647144Y-109099310D01*
X148570953Y-109137405D01*
X148418572Y-109137405D01*
X148342382Y-109099310D01*
X148304286Y-109061214D01*
X148266191Y-108985024D01*
X148266191Y-108794548D01*
X148304286Y-108718357D01*
X148342382Y-108680262D01*
X148418572Y-108642167D01*
X148570953Y-108642167D01*
X148647144Y-108680262D01*
X148685239Y-108718357D01*
X148723334Y-108794548D01*
X147770953Y-108337405D02*
X147694762Y-108337405D01*
X147618572Y-108375500D01*
X147580477Y-108413595D01*
X147542381Y-108489786D01*
X147504286Y-108642167D01*
X147504286Y-108832643D01*
X147542381Y-108985024D01*
X147580477Y-109061214D01*
X147618572Y-109099310D01*
X147694762Y-109137405D01*
X147770953Y-109137405D01*
X147847143Y-109099310D01*
X147885239Y-109061214D01*
X147923334Y-108985024D01*
X147961429Y-108832643D01*
X147961429Y-108642167D01*
X147923334Y-108489786D01*
X147885239Y-108413595D01*
X147847143Y-108375500D01*
X147770953Y-108337405D01*
X146742381Y-109137405D02*
X147199524Y-109137405D01*
X146970953Y-109137405D02*
X146970953Y-108337405D01*
X147047143Y-108451690D01*
X147123334Y-108527881D01*
X147199524Y-108565976D01*
X146437619Y-108413595D02*
X146399524Y-108375500D01*
X146323333Y-108337405D01*
X146132857Y-108337405D01*
X146056667Y-108375500D01*
X146018571Y-108413595D01*
X145980476Y-108489786D01*
X145980476Y-108565976D01*
X146018571Y-108680262D01*
X146475714Y-109137405D01*
X145980476Y-109137405D01*
X145599524Y-109137405D02*
X145447143Y-109137405D01*
X145370952Y-109099310D01*
X145332857Y-109061214D01*
X145256666Y-108946929D01*
X145218571Y-108794548D01*
X145218571Y-108489786D01*
X145256666Y-108413595D01*
X145294762Y-108375500D01*
X145370952Y-108337405D01*
X145523333Y-108337405D01*
X145599524Y-108375500D01*
X145637619Y-108413595D01*
X145675714Y-108489786D01*
X145675714Y-108680262D01*
X145637619Y-108756452D01*
X145599524Y-108794548D01*
X145523333Y-108832643D01*
X145370952Y-108832643D01*
X145294762Y-108794548D01*
X145256666Y-108756452D01*
X145218571Y-108680262D01*
X154114500Y-116205000D02*
X155765500Y-116205000D01*
D12*
X153670000Y-117221000D02*
X153670000Y-112395000D01*
X153670000Y-112395000D02*
X143510000Y-112395000D01*
X143510000Y-112395000D02*
X143510000Y-117221000D01*
X143510000Y-117221000D02*
X153670000Y-117221000D01*
X143510000Y-115443000D02*
X144145000Y-115443000D01*
X144145000Y-115443000D02*
X144145000Y-114173000D01*
X144145000Y-114173000D02*
X143510000Y-114173000D01*
X142240000Y-117090000D02*
X142240000Y-117340000D01*
X142240000Y-116590000D02*
X142240000Y-116340000D01*
X142240000Y-116590000D02*
X141890000Y-117090000D01*
X141890000Y-117090000D02*
X142590000Y-117090000D01*
X142590000Y-117090000D02*
X142240000Y-116590000D01*
X141890000Y-116590000D02*
X142590000Y-116590000D01*
X143040000Y-115540000D02*
X143040000Y-117940000D01*
X141440000Y-115540000D02*
X141440000Y-117940000D01*
X155790000Y-115705000D02*
X155790000Y-116705000D01*
X154090000Y-116705000D02*
X154090000Y-115705000D01*
X143115000Y-111725000D02*
X143115000Y-110525000D01*
X141365000Y-110525000D02*
X141365000Y-111725000D01*
X154065000Y-110525000D02*
X154065000Y-111725000D01*
X155815000Y-111725000D02*
X155815000Y-110525000D01*
M02*
