M48
;DRILL file {KiCad 4.0.1-stable} date Fri 29 Jan 2016 11:03:54 AM EET
;FORMAT={2:4/ absolute / inch / keep zeros}
FMAT,2
INCH,TZ
T1C0.016
T2C0.040
%
G90
G05
M72
T1
X056500Y-045200
X056900Y-045350
X057550Y-041950
X058000Y-043200
X058550Y-044500
X059000Y-045525
X059500Y-045475
X060450Y-044000
X060500Y-046625
X060700Y-044800
T2
X056000Y-047500
X057000Y-040500
X057000Y-041500
X057000Y-047500
X058000Y-040500
X058000Y-041500
X058000Y-047500
X059000Y-040500
X059000Y-041500
X059000Y-047500
X060000Y-040500
X060000Y-041500
X060000Y-047500
X061000Y-047500
T0
M30
